# xmcd CD database file
#
# Track frame offsets:
#	150
#	18383
#	48420
#	76585
#	99548
#	120983
#	144683
#	167628
#	191115
#	210115
#
# Disc length: 3092 seconds
#
# Revision: 1
# Processed by: cddbd v1.5.2PL0 Copyright (c) Steve Scherf et al.
# Submitted via: CD2WAV32(JP) R3.22
#
DISCID=770c120a
DTITLE=Yoshiko Kishino - Timescape
DYEAR=2006
DGENRE=Jazz
TTITLE0=Wave
TTITLE1=Come Together
TTITLE2=All of You
TTITLE3=No More Blues
TTITLE4=A Child Is Born
TTITLE5=Wives and Lovers
TTITLE6=For All We Know
TTITLE7=Spring Is Here
TTITLE8=When The Saints Go Marching In
TTITLE9=My Foolish Heart
EXTD=
EXTT0=
EXTT1=
EXTT2=
EXTT3=
EXTT4=
EXTT5=
EXTT6=
EXTT7=
EXTT8=
EXTT9=
PLAYORDER=
